<mxfile host="app.diagrams.net" modified="2023-04-24T15:42:11.189Z" agent="Mozilla/5.0 (Macintosh; Intel Mac OS X 10_15_7) AppleWebKit/537.36 (KHTML, like Gecko) Chrome/112.0.0.0 Safari/537.36" version="21.2.1" etag="nkxDx1nLXxeBcUQUvXxV" type="github">
  <diagram name="Страница 1" id="eIvOpr-eTh3H-kMk9N8D">
    <mxGraphModel>
      <root>
        <mxCell id="0" />
        <mxCell id="1" parent="0" />
      </root>
    </mxGraphModel>
  </diagram>
</mxfile>
